<svg xmlns="http://www.w3.org/2000/svg" width="491.296" height="432.164" viewBox="0 0 491.296 432.164">
  <g id="Group_107" data-name="Group 107" transform="translate(-1829.352 -733.918)">
    <g id="Group_106" data-name="Group 106">
      <path id="Path_65" data-name="Path 65" d="M1843.369,1160.563a.774.774,0,0,0,.026-.1c-.03.095-.027.123-.035.137C1843.353,1160.686,1843.351,1160.626,1843.369,1160.563Z" fill="#0d9bcd"/>
      <path id="Path_66" data-name="Path 66" d="M1843.472,1160.269l-.005.008-.006.016Z" fill="#0d9bcd"/>
      <path id="Path_67" data-name="Path 67" d="M1843.4,1160.464c.013-.042.036-.1.066-.171a.905.905,0,0,0-.04.09A.586.586,0,0,0,1843.4,1160.464Z" fill="#0d9bcd"/>
      <path id="Path_68" data-name="Path 68" d="M2320.468,915.322q-7.058-13.625-13.238-27.789c-4.077-9.452-7.751-19.113-10.932-28.968-1.61-5.048-3.127-10.1-4.879-15.121l-5.338-15.136q-5.362-15.159-11.247-30.292-5.914-15.228-12.795-30.214c-2.325-5.058-4.55-9.939-7.235-15.1a98.555,98.555,0,0,0-5.241-9.023c-.127-.188-.289-.447-.56-.807l-.737-1c-.249-.333-.491-.679-.75-1.005l-.816-.941-.823-.948-.913-.835a7.088,7.088,0,0,0-.963-.777c-.337-.236-.66-.5-1.011-.714a18.081,18.081,0,0,0-4.486-2.037,18.356,18.356,0,0,0-4.829-.7,17.47,17.47,0,0,0-12.8,5.585c-.783.933-1.615,1.8-2.348,2.78l-.869,1.17c-.215.284-.426.569-.627.857-.824,1.145-1.6,2.293-2.354,3.44a128.459,128.459,0,0,0-7.636,13.708c-2.229,4.546-4.2,8.989-6.273,13.556l-6.375,14.235c-8.854,19.806-16.463,40.06-23.692,60.389-5.6,15.782-10.679,31.687-15.579,47.623l-1.54,5.016-.783,2.561-1.5,4.718-.49,1.932c-.1.628-.179,1.251-.251,1.874a17.331,17.331,0,0,0,.117,3.568,15.631,15.631,0,0,0,2.668,6.646,15.366,15.366,0,0,0,5.376,4.726,14.639,14.639,0,0,0,3.309,1.265,16.333,16.333,0,0,0,3.617.511c.656-.013,1.3-.006,1.963-.035l1.989-.139,3.4-.247,4.307-.359,8.612-.721q22.522-1.892,45.03-3.95l5.25-.481c-.292,17.008-.647,34.006-1.363,50.985-.4,9.477-.875,18.9-1.1,28.384l-.683,28.575-.764,28.563c-.065,2.333-.142,4.874-.152,7.3-.022,2.445-.01,4.858,0,7.262.035,4.8.093,9.534.068,14.223a181.115,181.115,0,0,1-1.83,27.581c-1.437,8.812-4.02,17.219-8.475,23.818a33.724,33.724,0,0,1-8.088,8.362c-.755.6-1.626,1.047-2.422,1.589-.856.5-1.795.959-2.681,1.447a37.557,37.557,0,0,1-5.471,2.217l-.681.231-.7.16-1.458.344a11.731,11.731,0,0,1-1.523.246c-.518.06-1.043.166-1.577.2a28.615,28.615,0,0,1-6.722-.337,34.868,34.868,0,0,1-7.085-2.228,52.555,52.555,0,0,1-7.014-3.938c-6.819-4.617-12.871-10.634-18.6-16.85-5.749-6.251-11.151-12.825-17.069-19.456q-2.224-2.489-4.6-4.99l-4.479-4.675-9.011-9.47c-6.062-6.412-12.266-13.049-18.792-20.072-13.05-14.032-26.286-27.993-40.058-41.553s-27.946-26.778-43.189-39.179c-5.906-4.8-11.963-9.447-18.24-13.848-3.1-2.242-6.334-4.337-9.528-6.47-3.268-2.05-6.505-4.133-9.881-6.048-3.311-1.993-6.781-3.784-10.214-5.614l-5.273-2.578c-1.743-.877-3.591-1.6-5.383-2.41l-2.708-1.177-2.781-1.062-2.782-1.056-1.391-.525-1.429-.461-5.721-1.818-5.872-1.5c-.873-.245-1.785-.4-2.69-.571l-2.716-.507-2.718-.5c-.95-.122-1.894-.261-2.847-.365a68.6,68.6,0,0,0-11.6-.288,60.838,60.838,0,0,0-22.63,5.869,69.934,69.934,0,0,0-18.594,13.2,99.017,99.017,0,0,0-13.762,17.022c-7.815,12.119-13.35,25.118-17.726,38.286a279.038,279.038,0,0,0-9.81,40.129,351.955,351.955,0,0,0-4.512,40.487c-.4,7.506-.633,15.086-.438,22.675a126.684,126.684,0,0,0,2.392,22.671,46.881,46.881,0,0,0,1.784,6.616,13.05,13.05,0,0,0,3.347,5.377,15.412,15.412,0,0,0,2.854,2,4.194,4.194,0,0,0,2.834.563,1.343,1.343,0,0,0,.731-.519.757.757,0,0,0,.1-.183c.038-.087.089-.2.162-.339a5.905,5.905,0,0,1,.721-.986,5.723,5.723,0,0,1,.658-.713l.187-.164.222-.221c.152-.145.31-.286.473-.421s.332-.266.507-.39c.064-.045.243-.2.243-.2l.028-.034c.037-.05.076-.07.1-.127a1.341,1.341,0,0,0,.082-.416,8,8,0,0,0-.05-1.136c-.253-2.425-.515-4.939-.78-7.476-.28-2.8-.56-5.739-.756-8.649a223.048,223.048,0,0,1-.1-24.654c.372-8.309,1.051-16.64,1.918-24.95.865-8.26,1.863-16.51,3.206-24.7a269.191,269.191,0,0,1,8.436-36.222,162.024,162.024,0,0,1,14.433-33.733c6.036-10.234,13.611-19.458,23.016-25.488a44.6,44.6,0,0,1,17.8-6.7,47.518,47.518,0,0,1,9.674-.377c1.631.078,3.269.283,4.907.51l5.038.954a119.057,119.057,0,0,1,19.893,6.375,189.645,189.645,0,0,1,19.107,9.517c16.1,9.181,31.2,20.451,45.6,32.55,14.376,12.179,28.238,25.147,41.764,38.467q9.262,9.091,18.367,18.391c6.216,6.309,12.572,12.449,18.857,18.711,7.148,7.121,14.219,14.338,21.339,21.52l5.35,5.378,2.668,2.68c.861.88,1.73,1.743,2.58,2.651,3.421,3.587,6.776,7.331,10.193,11.06,6.979,7.6,14.176,15.24,22.431,21.837a74.006,74.006,0,0,0,13.371,8.632,50.934,50.934,0,0,0,7.473,2.981,40.674,40.674,0,0,0,7.943,1.519,38.819,38.819,0,0,0,8.007-.113c1.314-.211,2.634-.42,3.932-.7l1.925-.514a16.553,16.553,0,0,0,1.9-.575,49.6,49.6,0,0,0,7.262-3.124,45.887,45.887,0,0,0,6.7-4.213,43.188,43.188,0,0,0,10.658-11.725,58.451,58.451,0,0,0,6.428-14.408c3.024-10.055,3.841-20.479,3.992-30.724.156-10.269-.452-20.465-.6-30.6-.07-5.116.072-10.272.134-15.434l.229-15.472.369-30.943q.281-30.778.178-61.542-.03-11.1-.032-22.176l11.69-1.072c8.252-.755,16.65-1.2,24.785-2.866,2.274-.465,5.1-.893,6.7-2.811a26.083,26.083,0,0,0,2.834-3.874,4.916,4.916,0,0,0,.782-3.749c-.529-1.664-2.422-2.365-3.888-2.76a36.624,36.624,0,0,0-10.6-.754c-9.645.313-19.3.523-28.93,1.177-1.144.077-2.287.166-3.43.26-.044-7.614-.113-15.228-.265-22.847-.085-4.9-.188-9.8-.218-14.705l-.027-4.086a22.307,22.307,0,0,0-.013-3.678,2,2,0,0,0-1.187-1.223c-1.151-.567-2.342.98-2.406,3.051-.464,14.649-.724,29.3-.964,43.943q-2.911.276-5.821.561l-21.5,2.009L2187.54,912.2l-10.687.944-5.344.472-1.538.265a2,2,0,0,1-2.04-.9,1.858,1.858,0,0,1-.286-1.13,7.838,7.838,0,0,1,.272-1.177l.182-.656.046-.166.157-.5.322-1.014,1.3-4.054,2.621-8.1,5.3-16.165c6.665-20.274,13.556-40.445,20.977-60.4,1.7-4.54,3.391-9.088,5.154-13.6,1.766-4.626,3.338-9.307,5.028-13.964l3.026-7.887,3.18-7.827c2.144-5.215,4.33-10.336,6.712-15.309,1.216-2.537,2.5-5.024,3.9-7.442.346-.607.7-1.208,1.067-1.8.342-.577.769-1.233,1.078-1.718a14.634,14.634,0,0,1,1.918-2.641,6.546,6.546,0,0,1,6.281-1.568,6.477,6.477,0,0,1,2.931,1.781c.4.427.785.871,1.16,1.33.191.234.376.448.572.7l.642.833a88.673,88.673,0,0,1,8.487,14.6c1.255,2.56,2.411,5.153,3.611,7.732l1.775,3.877,1.7,3.917c4.564,10.393,9.579,20.62,13.879,31.177,4.374,10.681,8.365,21.528,12.471,32.336,4.078,10.754,8.286,21.472,12.9,32.014s9.317,21.023,15.144,30.917c1.338,2.391,2.8,4.713,4.19,7.071l1.158,1.962a6.985,6.985,0,0,0,1.032,1.77,2.043,2.043,0,0,0,2.667-2.566Z" fill="#0d9bcd"/>
    </g>
  </g>
</svg>
