<svg xmlns="http://www.w3.org/2000/svg" width="1733.055" height="81.169" viewBox="0 0 1733.055 81.169">
  <g id="Group_216" data-name="Group 216" transform="translate(-80.5 -2095.585)">
    <g id="Rectangle_239" data-name="Rectangle 239" transform="translate(80.5 2101.93)" fill="#0d8449" stroke="#0d8449" stroke-width="3">
      <rect width="138" height="71" rx="35.5" stroke="none"/>
      <rect x="1.5" y="1.5" width="135" height="68" rx="34" fill="none"/>
    </g>
    <path id="Path_104" data-name="Path 104" d="M4422,611.5v74.113h143.679l23.037-37.764L4565.678,611.5Z" transform="translate(-2890.232 1486.085)" fill="#f2f2f2" stroke="#fff" stroke-width="4"/>
    <g id="Group_191" data-name="Group 191" transform="translate(1146.41 3.641)">
      <path id="Path_100" data-name="Path 100" d="M4422,611.5v74.113h143.679l23.037-37.764L4565.678,611.5Z" transform="translate(-3923.926 1482.444)" fill="#f2f2f2" stroke="#fff" stroke-width="4"/>
      <g id="Rectangle_238" data-name="Rectangle 238" transform="translate(496 2096)" fill="#f2f2f2" stroke="#f2f2f2" stroke-width="1">
        <rect width="12" height="70" stroke="none"/>
        <rect x="0.5" y="0.5" width="11" height="69" fill="none"/>
      </g>
    </g>
    <path id="Path_134" data-name="Path 134" d="M10.6-20.631a8.23,8.23,0,0,1,5.92,2.01,7.1,7.1,0,0,1,2.338,4.566H16.2a5.52,5.52,0,0,0-1.8-3.076,5.7,5.7,0,0,0-3.78-1.135,6.062,6.062,0,0,0-4.792,2.085Q4.006-14.1,4.006-9.789A9.284,9.284,0,0,0,5.653-4.067a5.756,5.756,0,0,0,4.915,2.194,5.193,5.193,0,0,0,4.58-2.311,8.787,8.787,0,0,0,1.244-3.2h2.652a9.063,9.063,0,0,1-2.352,5.318A8.367,8.367,0,0,1,10.24.52,8.517,8.517,0,0,1,4.361-1.6Q1.23-4.4,1.23-10.254a11.055,11.055,0,0,1,2.352-7.287A8.59,8.59,0,0,1,10.6-20.631Zm11.5.547h2.461V0H22.094Zm11.963,18.5a3.394,3.394,0,0,0,3.356-1.853,9.229,9.229,0,0,0,.909-4.122,7.339,7.339,0,0,0-.656-3.336,3.692,3.692,0,0,0-3.582-2.023A3.532,3.532,0,0,0,30.8-11.2a7.985,7.985,0,0,0-1.025,4.156,6.946,6.946,0,0,0,1.025,3.9A3.612,3.612,0,0,0,34.057-1.586Zm.1-13.48a6.63,6.63,0,0,1,4.785,1.887,7.368,7.368,0,0,1,1.955,5.551A9.523,9.523,0,0,1,39.17-1.777,6.232,6.232,0,0,1,33.824.533a6.035,6.035,0,0,1-4.8-2.044A8.073,8.073,0,0,1,27.248-7a8.734,8.734,0,0,1,1.873-5.879A6.286,6.286,0,0,1,34.152-15.066ZM45.281-4.594A3.579,3.579,0,0,0,45.9-2.707a3.866,3.866,0,0,0,3.227,1.189,4.758,4.758,0,0,0,2.406-.595,1.975,1.975,0,0,0,1.039-1.839,1.573,1.573,0,0,0-.834-1.436,9.916,9.916,0,0,0-2.105-.7l-1.955-.492a9.537,9.537,0,0,1-2.762-1.039,3.106,3.106,0,0,1-1.586-2.762,4.22,4.22,0,0,1,1.5-3.363,5.972,5.972,0,0,1,4.026-1.285q3.309,0,4.771,1.941a4.213,4.213,0,0,1,.889,2.652H52.186a2.847,2.847,0,0,0-.588-1.518,3.749,3.749,0,0,0-2.939-.971,3.514,3.514,0,0,0-2.112.533,1.671,1.671,0,0,0-.718,1.408,1.733,1.733,0,0,0,.943,1.531,5.669,5.669,0,0,0,1.613.6l1.627.4a12.579,12.579,0,0,1,3.555,1.244A3.294,3.294,0,0,1,55-4.238,4.521,4.521,0,0,1,53.519-.861,6.315,6.315,0,0,1,49,.561q-3.268,0-4.628-1.483a5.61,5.61,0,0,1-1.456-3.671Zm12.537-9.98h2.5V0h-2.5Zm0-5.51h2.5v2.789h-2.5Zm6.221,5.441h2.338v2.078a6.557,6.557,0,0,1,2.2-1.846,5.87,5.87,0,0,1,2.584-.561q3.117,0,4.211,2.174a7.719,7.719,0,0,1,.6,3.4V0h-2.5V-9.229a5,5,0,0,0-.4-2.16A2.4,2.4,0,0,0,70.7-12.756a4.844,4.844,0,0,0-1.436.178,3.7,3.7,0,0,0-1.777,1.2,3.622,3.622,0,0,0-.8,1.5A10.077,10.077,0,0,0,66.5-7.67V0H64.039Zm20.74-.26a5.337,5.337,0,0,1,3.008.848,6.756,6.756,0,0,1,1.422,1.395v-1.846h2.27V-1.189a9.82,9.82,0,0,1-.82,4.4q-1.531,2.98-5.783,2.98A7.094,7.094,0,0,1,80.9,5.134a4.132,4.132,0,0,1-1.8-3.315h2.5A2.784,2.784,0,0,0,82.3,3.336a3.625,3.625,0,0,0,2.625.82q2.83,0,3.705-2a11.242,11.242,0,0,0,.479-4.2A4.829,4.829,0,0,1,87.336-.369a5.912,5.912,0,0,1-2.748.547,5.866,5.866,0,0,1-4.163-1.688Q78.641-3.2,78.641-7.1a8.458,8.458,0,0,1,1.8-5.742A5.559,5.559,0,0,1,84.779-14.9Zm4.43,7.52a6.1,6.1,0,0,0-1.121-4.033,3.592,3.592,0,0,0-2.857-1.312,3.528,3.528,0,0,0-3.555,2.434,9.542,9.542,0,0,0-.506,3.4,6.043,6.043,0,0,0,1,3.767,3.244,3.244,0,0,0,2.7,1.292,3.791,3.791,0,0,0,3.732-2.393A7.717,7.717,0,0,0,89.209-7.383Z" transform="translate(1616.41 2143.641)" fill="#282828"/>
    <path id="Path_103" data-name="Path 103" d="M4422,611.5v74.113h143.679l23.037-37.764L4565.678,611.5Z" transform="translate(-3145.946 1486.085)" fill="#f2f2f2" stroke="#fff" stroke-width="4"/>
    <g id="Group_190" data-name="Group 190" transform="translate(890.696 3.641)">
      <path id="Path_100-2" data-name="Path 100" d="M4422,611.5v74.113h143.679l23.037-37.764L4565.678,611.5Z" transform="translate(-3923.926 1482.444)" fill="#f2f2f2" stroke="#fff" stroke-width="4"/>
      <g id="Rectangle_238-2" data-name="Rectangle 238" transform="translate(496 2096)" fill="#f2f2f2" stroke="#f2f2f2" stroke-width="1">
        <rect width="12" height="70" stroke="none"/>
        <rect x="0.5" y="0.5" width="11" height="69" fill="none"/>
      </g>
    </g>
    <path id="Path_133" data-name="Path 133" d="M2.133-20.084H5.346L15.49-3.814v-16.27h2.584V0H15.025L4.73-16.256V0h-2.6Zm25.99,5.113a6.679,6.679,0,0,1,3.021.731,5.572,5.572,0,0,1,2.229,1.894,6.533,6.533,0,0,1,.984,2.584,16.906,16.906,0,0,1,.219,3.227H23.844A6.263,6.263,0,0,0,24.9-2.96a3.525,3.525,0,0,0,3.049,1.347,3.941,3.941,0,0,0,3.076-1.271,4.286,4.286,0,0,0,.93-1.709h2.42a5.1,5.1,0,0,1-.636,1.8,6.394,6.394,0,0,1-1.21,1.62A5.735,5.735,0,0,1,29.75.3,8.431,8.431,0,0,1,27.74.52,6.166,6.166,0,0,1,23.105-1.47a7.74,7.74,0,0,1-1.9-5.571,8.416,8.416,0,0,1,1.914-5.729A6.314,6.314,0,0,1,28.123-14.971Zm3.924,6.48a6.376,6.376,0,0,0-.7-2.557,3.574,3.574,0,0,0-3.377-1.777A3.743,3.743,0,0,0,25.129-11.6a4.622,4.622,0,0,0-1.217,3.11ZM42.766-14.9a5.337,5.337,0,0,1,3.008.848A6.756,6.756,0,0,1,47.2-12.66v-1.846h2.27V-1.189a9.82,9.82,0,0,1-.82,4.4q-1.531,2.98-5.783,2.98a7.094,7.094,0,0,1-3.979-1.06,4.132,4.132,0,0,1-1.8-3.315h2.5a2.784,2.784,0,0,0,.711,1.518,3.625,3.625,0,0,0,2.625.82q2.83,0,3.705-2a11.242,11.242,0,0,0,.479-4.2A4.829,4.829,0,0,1,45.322-.369a5.912,5.912,0,0,1-2.748.547,5.866,5.866,0,0,1-4.163-1.688Q36.627-3.2,36.627-7.1a8.458,8.458,0,0,1,1.8-5.742A5.559,5.559,0,0,1,42.766-14.9Zm4.43,7.52a6.1,6.1,0,0,0-1.121-4.033,3.592,3.592,0,0,0-2.857-1.312,3.528,3.528,0,0,0-3.555,2.434,9.542,9.542,0,0,0-.506,3.4,6.043,6.043,0,0,0,1,3.767,3.244,3.244,0,0,0,2.7,1.292,3.791,3.791,0,0,0,3.732-2.393A7.717,7.717,0,0,0,47.2-7.383Zm11.785,5.8a3.394,3.394,0,0,0,3.356-1.853,9.229,9.229,0,0,0,.909-4.122A7.339,7.339,0,0,0,62.59-10.9a3.692,3.692,0,0,0-3.582-2.023A3.532,3.532,0,0,0,55.727-11.2,7.985,7.985,0,0,0,54.7-7.041a6.946,6.946,0,0,0,1.025,3.9A3.612,3.612,0,0,0,58.98-1.586Zm.1-13.48a6.63,6.63,0,0,1,4.785,1.887,7.368,7.368,0,0,1,1.955,5.551,9.523,9.523,0,0,1-1.723,5.852A6.232,6.232,0,0,1,58.748.533a6.035,6.035,0,0,1-4.8-2.044A8.073,8.073,0,0,1,52.172-7a8.734,8.734,0,0,1,1.873-5.879A6.286,6.286,0,0,1,59.076-15.066ZM69.234-18.73h2.488v4.088h2.338v2.01H71.723v9.557a1.034,1.034,0,0,0,.52,1.025,2.208,2.208,0,0,0,.957.15q.178,0,.383-.007t.479-.034V0a5.494,5.494,0,0,1-.882.178,8.384,8.384,0,0,1-.991.055A2.671,2.671,0,0,1,69.85-.649a3.919,3.919,0,0,1-.615-2.29v-9.693H67.252v-2.01h1.982Zm7.287,4.156h2.5V0h-2.5Zm0-5.51h2.5v2.789h-2.5ZM84.629-3.9a2.027,2.027,0,0,0,.779,1.682,2.889,2.889,0,0,0,1.846.615,5.612,5.612,0,0,0,2.516-.6A3.386,3.386,0,0,0,91.82-5.469V-7.451a4.21,4.21,0,0,1-1.162.479,9.9,9.9,0,0,1-1.395.273l-1.49.191a5.7,5.7,0,0,0-2.01.561A2.184,2.184,0,0,0,84.629-3.9ZM90.59-8.873a1.337,1.337,0,0,0,1.135-.711,2.163,2.163,0,0,0,.164-.943,2,2,0,0,0-.9-1.825,4.8,4.8,0,0,0-2.563-.567A3.257,3.257,0,0,0,85.7-11.881a3.418,3.418,0,0,0-.588,1.709h-2.3a4.228,4.228,0,0,1,1.757-3.767A7.213,7.213,0,0,1,88.484-15a7.97,7.97,0,0,1,4.2.984,3.34,3.34,0,0,1,1.6,3.063v8.436a1.08,1.08,0,0,0,.157.615.758.758,0,0,0,.663.232q.164,0,.369-.021t.438-.062V.068a6.854,6.854,0,0,1-.875.205,6.394,6.394,0,0,1-.82.041,2.024,2.024,0,0,1-1.846-.9,3.482,3.482,0,0,1-.424-1.354,6.261,6.261,0,0,1-2.16,1.709,6.682,6.682,0,0,1-3.1.725A4.615,4.615,0,0,1,83.351-.745a4.11,4.11,0,0,1-1.292-3.1A3.989,3.989,0,0,1,83.33-7a6.05,6.05,0,0,1,3.336-1.381Zm8.217-9.857h2.488v4.088h2.338v2.01h-2.338v9.557a1.034,1.034,0,0,0,.52,1.025,2.208,2.208,0,0,0,.957.15q.178,0,.383-.007t.479-.034V0a5.494,5.494,0,0,1-.882.178,8.384,8.384,0,0,1-.991.055,2.671,2.671,0,0,1-2.338-.882,3.919,3.919,0,0,1-.615-2.29v-9.693H96.824v-2.01h1.982Zm13.385,3.76a6.679,6.679,0,0,1,3.021.731,5.572,5.572,0,0,1,2.229,1.894,6.533,6.533,0,0,1,.984,2.584,16.906,16.906,0,0,1,.219,3.227H107.912a6.263,6.263,0,0,0,1.053,3.575,3.525,3.525,0,0,0,3.049,1.347,3.941,3.941,0,0,0,3.076-1.271,4.286,4.286,0,0,0,.93-1.709h2.42a5.1,5.1,0,0,1-.636,1.8,6.394,6.394,0,0,1-1.21,1.62A5.735,5.735,0,0,1,113.818.3a8.431,8.431,0,0,1-2.01.219,6.166,6.166,0,0,1-4.635-1.989,7.74,7.74,0,0,1-1.9-5.571,8.416,8.416,0,0,1,1.914-5.729A6.314,6.314,0,0,1,112.191-14.971Zm3.924,6.48a6.376,6.376,0,0,0-.7-2.557,3.574,3.574,0,0,0-3.377-1.777A3.743,3.743,0,0,0,109.2-11.6a4.622,4.622,0,0,0-1.217,3.11Z" transform="translate(1359.696 2143.641)" fill="#282828"/>
    <path id="Path_102" data-name="Path 102" d="M4422,611.5v74.113h143.679l23.037-37.764L4565.678,611.5Z" transform="translate(-3391.946 1486.085)" fill="#d4d4d4" stroke="#fff" stroke-width="4"/>
    <path id="Path_100-3" data-name="Path 100" d="M4422,611.5v74.113h143.679l23.037-37.764L4565.678,611.5Z" transform="translate(-3279.229 1486.085)" fill="#d4d4d4" stroke="#fff" stroke-width="4"/>
    <g id="Rectangle_238-3" data-name="Rectangle 238" transform="translate(1140.696 2099.641)" fill="#d4d4d4" stroke="#d4d4d4" stroke-width="1">
      <rect width="12" height="70" stroke="none"/>
      <rect x="0.5" y="0.5" width="11" height="69" fill="none"/>
    </g>
    <path id="Path_132" data-name="Path 132" d="M2.393-20.084H11.43a6.126,6.126,0,0,1,4.32,1.511,5.482,5.482,0,0,1,1.641,4.245,6.172,6.172,0,0,1-1.463,4.095,5.543,5.543,0,0,1-4.5,1.743H5.113V0H2.393Zm12.25,5.77A3.022,3.022,0,0,0,13-17.322a5.924,5.924,0,0,0-2.475-.424H5.113v6.959h5.414a5.174,5.174,0,0,0,2.974-.779A3.088,3.088,0,0,0,14.643-14.314Zm5.906-.328h2.338v2.529a5.588,5.588,0,0,1,1.408-1.8,3.651,3.651,0,0,1,2.584-1.06q.068,0,.232.014t.561.055v2.6a3.676,3.676,0,0,0-.4-.055q-.185-.014-.4-.014a3.512,3.512,0,0,0-2.857,1.2,4.176,4.176,0,0,0-1,2.755V0H20.549ZM35.615-1.586a3.394,3.394,0,0,0,3.356-1.853,9.229,9.229,0,0,0,.909-4.122,7.339,7.339,0,0,0-.656-3.336,3.692,3.692,0,0,0-3.582-2.023A3.532,3.532,0,0,0,32.361-11.2a7.985,7.985,0,0,0-1.025,4.156,6.946,6.946,0,0,0,1.025,3.9A3.612,3.612,0,0,0,35.615-1.586Zm.1-13.48A6.63,6.63,0,0,1,40.5-13.18a7.368,7.368,0,0,1,1.955,5.551,9.523,9.523,0,0,1-1.723,5.852A6.232,6.232,0,0,1,35.383.533a6.035,6.035,0,0,1-4.8-2.044A8.073,8.073,0,0,1,28.807-7a8.734,8.734,0,0,1,1.873-5.879A6.286,6.286,0,0,1,35.711-15.066Zm10.869.424L50.49-2.721l4.088-11.922h2.693L51.748,0H49.123l-5.4-14.643Zm18.895-.328a6.679,6.679,0,0,1,3.021.731,5.572,5.572,0,0,1,2.229,1.894,6.533,6.533,0,0,1,.984,2.584,16.906,16.906,0,0,1,.219,3.227H61.2A6.263,6.263,0,0,0,62.248-2.96,3.525,3.525,0,0,0,65.3-1.613a3.941,3.941,0,0,0,3.076-1.271,4.286,4.286,0,0,0,.93-1.709h2.42a5.1,5.1,0,0,1-.636,1.8,6.394,6.394,0,0,1-1.21,1.62A5.735,5.735,0,0,1,67.1.3a8.431,8.431,0,0,1-2.01.219A6.166,6.166,0,0,1,60.457-1.47a7.74,7.74,0,0,1-1.9-5.571,8.416,8.416,0,0,1,1.914-5.729A6.314,6.314,0,0,1,65.475-14.971ZM69.4-8.49a6.376,6.376,0,0,0-.7-2.557,3.574,3.574,0,0,0-3.377-1.777A3.743,3.743,0,0,0,62.48-11.6a4.622,4.622,0,0,0-1.217,3.11Z" transform="translate(1139.696 2143.641)" fill="#282828"/>
    <path id="Path_101" data-name="Path 101" d="M4422,611.5v74.113h143.679l23.037-37.764L4565.678,611.5Z" transform="translate(-3629.946 1486.085)" fill="#d4d4d4" stroke="#fff" stroke-width="4"/>
    <path id="Path_100-4" data-name="Path 100" d="M4422,611.5v74.113h143.679l23.037-37.764L4565.678,611.5Z" transform="translate(-3517.229 1486.085)" fill="#d4d4d4" stroke="#fff" stroke-width="4"/>
    <g id="Rectangle_238-4" data-name="Rectangle 238" transform="translate(902.696 2099.641)" fill="#d4d4d4" stroke="#d4d4d4" stroke-width="1">
      <rect width="12" height="70" stroke="none"/>
      <rect x="0.5" y="0.5" width="11" height="69" fill="none"/>
    </g>
    <path id="Path_131" data-name="Path 131" d="M9.844-2.324a7.52,7.52,0,0,0,2.27-.287,4.992,4.992,0,0,0,2.6-2.051,8.4,8.4,0,0,0,1.162-3.117,11.89,11.89,0,0,0,.205-2.105,9.8,9.8,0,0,0-1.483-5.8,5.48,5.48,0,0,0-4.778-2.064H4.99V-2.324ZM2.256-20.084h8.135a7.667,7.667,0,0,1,6.426,2.939,10.837,10.837,0,0,1,2.037,6.795,13.538,13.538,0,0,1-1.2,5.783A7.423,7.423,0,0,1,10.363,0H2.256Zm25.867,5.113a6.679,6.679,0,0,1,3.021.731,5.572,5.572,0,0,1,2.229,1.894,6.533,6.533,0,0,1,.984,2.584,16.906,16.906,0,0,1,.219,3.227H23.844A6.263,6.263,0,0,0,24.9-2.96a3.525,3.525,0,0,0,3.049,1.347,3.941,3.941,0,0,0,3.076-1.271,4.286,4.286,0,0,0,.93-1.709h2.42a5.1,5.1,0,0,1-.636,1.8,6.394,6.394,0,0,1-1.21,1.62A5.735,5.735,0,0,1,29.75.3,8.431,8.431,0,0,1,27.74.52,6.166,6.166,0,0,1,23.105-1.47a7.74,7.74,0,0,1-1.9-5.571,8.416,8.416,0,0,1,1.914-5.729A6.314,6.314,0,0,1,28.123-14.971Zm3.924,6.48a6.376,6.376,0,0,0-.7-2.557,3.574,3.574,0,0,0-3.377-1.777A3.743,3.743,0,0,0,25.129-11.6a4.622,4.622,0,0,0-1.217,3.11ZM38.8-14.643l3.91,11.922L46.8-14.643h2.693L43.969,0H41.344l-5.4-14.643ZM57.7-14.971a6.679,6.679,0,0,1,3.021.731,5.572,5.572,0,0,1,2.229,1.894,6.533,6.533,0,0,1,.984,2.584,16.906,16.906,0,0,1,.219,3.227H53.416A6.263,6.263,0,0,0,54.469-2.96a3.525,3.525,0,0,0,3.049,1.347,3.941,3.941,0,0,0,3.076-1.271,4.286,4.286,0,0,0,.93-1.709h2.42a5.1,5.1,0,0,1-.636,1.8,6.394,6.394,0,0,1-1.21,1.62A5.735,5.735,0,0,1,59.322.3a8.431,8.431,0,0,1-2.01.219A6.166,6.166,0,0,1,52.678-1.47a7.74,7.74,0,0,1-1.9-5.571,8.416,8.416,0,0,1,1.914-5.729A6.314,6.314,0,0,1,57.7-14.971Zm3.924,6.48a6.376,6.376,0,0,0-.7-2.557,3.574,3.574,0,0,0-3.377-1.777A3.743,3.743,0,0,0,54.7-11.6a4.622,4.622,0,0,0-1.217,3.11Zm5.619-11.594H69.7V0H67.238ZM79.2-1.586a3.394,3.394,0,0,0,3.356-1.853,9.229,9.229,0,0,0,.909-4.122,7.339,7.339,0,0,0-.656-3.336,3.692,3.692,0,0,0-3.582-2.023A3.532,3.532,0,0,0,75.947-11.2a7.985,7.985,0,0,0-1.025,4.156,6.946,6.946,0,0,0,1.025,3.9A3.611,3.611,0,0,0,79.2-1.586Zm.1-13.48a6.63,6.63,0,0,1,4.785,1.887,7.368,7.368,0,0,1,1.955,5.551,9.523,9.523,0,0,1-1.723,5.852A6.232,6.232,0,0,1,78.969.533a6.035,6.035,0,0,1-4.8-2.044A8.073,8.073,0,0,1,72.393-7a8.734,8.734,0,0,1,1.873-5.879A6.286,6.286,0,0,1,79.3-15.066ZM95.143-1.654A3.511,3.511,0,0,0,98.007-3.1,6.864,6.864,0,0,0,99.148-7.41a8.051,8.051,0,0,0-.506-3.008,3.491,3.491,0,0,0-3.5-2.42,3.49,3.49,0,0,0-3.5,2.557,10.132,10.132,0,0,0-.506,3.473,7.361,7.361,0,0,0,.506,2.885A3.49,3.49,0,0,0,95.143-1.654Zm-6.371-12.92h2.393v1.941a5.973,5.973,0,0,1,1.613-1.545A5.193,5.193,0,0,1,95.7-15a5.5,5.5,0,0,1,4.225,1.907,7.814,7.814,0,0,1,1.736,5.448q0,4.785-2.5,6.836a5.653,5.653,0,0,1-3.691,1.3A5.011,5.011,0,0,1,92.7-.232a6.394,6.394,0,0,1-1.463-1.408V5.838H88.771Z" transform="translate(879.696 2143.641)" fill="#282828"/>
    <path id="Path_90" data-name="Path 90" d="M4422,611.5v74.113h143.679l23.037-37.764L4565.678,611.5Z" transform="translate(-3876.946 1486.085)" fill="#d4d4d4" stroke="#fff" stroke-width="4"/>
    <path id="Path_100-5" data-name="Path 100" d="M4422,611.5v74.113h143.679l23.037-37.764L4565.678,611.5Z" transform="translate(-3764.229 1486.085)" fill="#d4d4d4" stroke="#fff" stroke-width="4"/>
    <g id="Rectangle_238-5" data-name="Rectangle 238" transform="translate(655.696 2099.641)" fill="#d4d4d4" stroke="#d4d4d4" stroke-width="1">
      <rect width="12" height="70" stroke="none"/>
      <rect x="0.5" y="0.5" width="11" height="69" fill="none"/>
    </g>
    <path id="Path_130" data-name="Path 130" d="M20.508-.055,19.141,1.6l-3.1-2.365A11.564,11.564,0,0,1,13.61.219,10.449,10.449,0,0,1,10.76.588,9.183,9.183,0,0,1,3.432-2.475,11.725,11.725,0,0,1,1.094-9.939a11.873,11.873,0,0,1,2.023-6.973A8.766,8.766,0,0,1,10.8-20.631q5.318,0,7.875,3.418a11.077,11.077,0,0,1,2,6.822,14.4,14.4,0,0,1-.479,3.732A9.648,9.648,0,0,1,17.746-2.2Zm-9.42-1.791a10.21,10.21,0,0,0,1.586-.116,3.393,3.393,0,0,0,1.285-.458l-2.2-1.723,1.367-1.682L15.75-3.787a7.606,7.606,0,0,0,1.688-3.186,13.821,13.821,0,0,0,.444-3.377,8.454,8.454,0,0,0-1.853-5.7,6.323,6.323,0,0,0-5.065-2.16A6.65,6.65,0,0,0,5.811-16.14q-1.9,2.071-1.9,6.378a8.611,8.611,0,0,0,1.825,5.77A6.635,6.635,0,0,0,11.088-1.846Zm14.957-12.8v9.721A4.1,4.1,0,0,0,26.4-3.09a2.48,2.48,0,0,0,2.447,1.313,3.459,3.459,0,0,0,3.5-2.3,9.113,9.113,0,0,0,.506-3.377v-7.191h2.461V0H32.99l.027-2.16A4.964,4.964,0,0,1,31.828-.752,5.234,5.234,0,0,1,28.41.4Q25.279.4,24.145-1.7a6.23,6.23,0,0,1-.615-2.994v-9.953Zm15,10.746a2.027,2.027,0,0,0,.779,1.682,2.889,2.889,0,0,0,1.846.615,5.612,5.612,0,0,0,2.516-.6,3.386,3.386,0,0,0,2.051-3.268V-7.451a4.21,4.21,0,0,1-1.162.479,9.9,9.9,0,0,1-1.395.273l-1.49.191a5.7,5.7,0,0,0-2.01.561A2.184,2.184,0,0,0,41.043-3.9ZM47-8.873a1.337,1.337,0,0,0,1.135-.711,2.163,2.163,0,0,0,.164-.943,2,2,0,0,0-.9-1.825,4.8,4.8,0,0,0-2.563-.567,3.257,3.257,0,0,0-2.734,1.039,3.418,3.418,0,0,0-.588,1.709h-2.3a4.228,4.228,0,0,1,1.757-3.767A7.213,7.213,0,0,1,44.9-15a7.97,7.97,0,0,1,4.2.984,3.34,3.34,0,0,1,1.6,3.063v8.436a1.08,1.08,0,0,0,.157.615.758.758,0,0,0,.663.232q.164,0,.369-.021t.438-.062V.068a6.854,6.854,0,0,1-.875.205,6.394,6.394,0,0,1-.82.041,2.024,2.024,0,0,1-1.846-.9,3.482,3.482,0,0,1-.424-1.354A6.261,6.261,0,0,1,46.2-.232a6.682,6.682,0,0,1-3.1.725A4.615,4.615,0,0,1,39.765-.745a4.11,4.11,0,0,1-1.292-3.1A3.989,3.989,0,0,1,39.744-7,6.05,6.05,0,0,1,43.08-8.381ZM54.8-20.084h2.461V0H54.8Zm6.152,5.51h2.5V0h-2.5Zm0-5.51h2.5v2.789h-2.5Zm6.713,1.354H70.15v4.088h2.338v2.01H70.15v9.557a1.034,1.034,0,0,0,.52,1.025,2.208,2.208,0,0,0,.957.15q.178,0,.383-.007t.479-.034V0a5.494,5.494,0,0,1-.882.178,8.384,8.384,0,0,1-.991.055,2.671,2.671,0,0,1-2.338-.882,3.919,3.919,0,0,1-.615-2.29v-9.693H65.68v-2.01h1.982ZM84.1-14.643h2.721q-.52,1.408-2.311,6.426-1.34,3.773-2.242,6.152a41.593,41.593,0,0,1-3.008,6.836A3.438,3.438,0,0,1,76.248,6a5.9,5.9,0,0,1-.8-.041,6.318,6.318,0,0,1-.69-.15V3.568a8.49,8.49,0,0,0,.93.219,3.629,3.629,0,0,0,.506.041,1.771,1.771,0,0,0,1-.226,2.081,2.081,0,0,0,.54-.554q.068-.109.492-1.121t.615-1.5L73.432-14.643h2.789L80.145-2.721Z" transform="translate(632.605 2143.641)" fill="#282828"/>
    <path id="Path_106" data-name="Path 106" d="M4422,611.5v74.113h143.679l23.037-37.764L4565.678,611.5Z" transform="translate(-4127.913 1489.141)" fill="#0261bb" stroke="#fff" stroke-width="4"/>
    <g id="Group_193" data-name="Group 193" transform="translate(-91.271 6.697)">
      <path id="Path_100-6" data-name="Path 100" d="M4422,611.5v74.113h143.679l23.037-37.764L4565.678,611.5Z" transform="translate(-3923.926 1482.444)" fill="#0261bb" stroke="#fff" stroke-width="4"/>
      <g id="Rectangle_238-6" data-name="Rectangle 238" transform="translate(496 2096)" fill="#0261bb" stroke="#0261bb" stroke-width="1">
        <rect width="12" height="70" stroke="none"/>
        <rect x="0.5" y="0.5" width="11" height="69" fill="none"/>
      </g>
    </g>
    <path id="Path_129" data-name="Path 129" d="M10.6-20.631a8.23,8.23,0,0,1,5.92,2.01,7.1,7.1,0,0,1,2.338,4.566H16.2a5.52,5.52,0,0,0-1.8-3.076,5.7,5.7,0,0,0-3.78-1.135,6.062,6.062,0,0,0-4.792,2.085Q4.006-14.1,4.006-9.789A9.284,9.284,0,0,0,5.653-4.067a5.756,5.756,0,0,0,4.915,2.194,5.193,5.193,0,0,0,4.58-2.311,8.787,8.787,0,0,0,1.244-3.2h2.652a9.063,9.063,0,0,1-2.352,5.318A8.367,8.367,0,0,1,10.24.52,8.517,8.517,0,0,1,4.361-1.6Q1.23-4.4,1.23-10.254a11.055,11.055,0,0,1,2.352-7.287A8.59,8.59,0,0,1,10.6-20.631Zm11.5,5.988h2.338v2.529a5.588,5.588,0,0,1,1.408-1.8,3.651,3.651,0,0,1,2.584-1.06q.068,0,.232.014t.561.055v2.6a3.676,3.676,0,0,0-.4-.055q-.185-.014-.4-.014a3.512,3.512,0,0,0-2.857,1.2,4.176,4.176,0,0,0-1,2.755V0H22.094Zm15.354-.328a6.679,6.679,0,0,1,3.021.731A5.572,5.572,0,0,1,42.7-12.346a6.533,6.533,0,0,1,.984,2.584A16.906,16.906,0,0,1,43.9-6.535H33.168A6.263,6.263,0,0,0,34.221-2.96,3.525,3.525,0,0,0,37.27-1.613a3.941,3.941,0,0,0,3.076-1.271,4.286,4.286,0,0,0,.93-1.709H43.7a5.1,5.1,0,0,1-.636,1.8,6.394,6.394,0,0,1-1.21,1.62A5.735,5.735,0,0,1,39.074.3a8.431,8.431,0,0,1-2.01.219A6.166,6.166,0,0,1,32.43-1.47a7.74,7.74,0,0,1-1.9-5.571,8.416,8.416,0,0,1,1.914-5.729A6.314,6.314,0,0,1,37.447-14.971Zm3.924,6.48a6.376,6.376,0,0,0-.7-2.557A3.574,3.574,0,0,0,37.3-12.824,3.743,3.743,0,0,0,34.453-11.6a4.622,4.622,0,0,0-1.217,3.11ZM48.809-3.9a2.027,2.027,0,0,0,.779,1.682,2.889,2.889,0,0,0,1.846.615,5.612,5.612,0,0,0,2.516-.6A3.386,3.386,0,0,0,56-5.469V-7.451a4.21,4.21,0,0,1-1.162.479,9.9,9.9,0,0,1-1.395.273l-1.49.191a5.7,5.7,0,0,0-2.01.561A2.184,2.184,0,0,0,48.809-3.9ZM54.77-8.873A1.337,1.337,0,0,0,55.9-9.584a2.163,2.163,0,0,0,.164-.943,2,2,0,0,0-.9-1.825,4.8,4.8,0,0,0-2.563-.567,3.257,3.257,0,0,0-2.734,1.039,3.418,3.418,0,0,0-.588,1.709h-2.3a4.228,4.228,0,0,1,1.757-3.767A7.213,7.213,0,0,1,52.664-15a7.97,7.97,0,0,1,4.2.984,3.34,3.34,0,0,1,1.6,3.063v8.436a1.08,1.08,0,0,0,.157.615.758.758,0,0,0,.663.232q.164,0,.369-.021t.438-.062V.068a6.854,6.854,0,0,1-.875.205,6.394,6.394,0,0,1-.82.041,2.024,2.024,0,0,1-1.846-.9,3.482,3.482,0,0,1-.424-1.354,6.261,6.261,0,0,1-2.16,1.709,6.682,6.682,0,0,1-3.1.725A4.615,4.615,0,0,1,47.53-.745a4.11,4.11,0,0,1-1.292-3.1A3.989,3.989,0,0,1,47.51-7a6.05,6.05,0,0,1,3.336-1.381Zm8.217-9.857h2.488v4.088h2.338v2.01H65.475v9.557a1.034,1.034,0,0,0,.52,1.025,2.208,2.208,0,0,0,.957.15q.178,0,.383-.007t.479-.034V0a5.494,5.494,0,0,1-.882.178,8.384,8.384,0,0,1-.991.055A2.671,2.671,0,0,1,63.6-.649a3.919,3.919,0,0,1-.615-2.29v-9.693H61v-2.01h1.982Zm13.385,3.76a6.679,6.679,0,0,1,3.021.731,5.572,5.572,0,0,1,2.229,1.894,6.533,6.533,0,0,1,.984,2.584,16.906,16.906,0,0,1,.219,3.227H72.092A6.263,6.263,0,0,0,73.145-2.96a3.525,3.525,0,0,0,3.049,1.347A3.941,3.941,0,0,0,79.27-2.885a4.286,4.286,0,0,0,.93-1.709h2.42a5.1,5.1,0,0,1-.636,1.8,6.394,6.394,0,0,1-1.21,1.62A5.735,5.735,0,0,1,78,.3a8.431,8.431,0,0,1-2.01.219A6.166,6.166,0,0,1,71.354-1.47a7.74,7.74,0,0,1-1.9-5.571,8.416,8.416,0,0,1,1.914-5.729A6.314,6.314,0,0,1,76.371-14.971Zm3.924,6.48a6.376,6.376,0,0,0-.7-2.557,3.574,3.574,0,0,0-3.377-1.777A3.743,3.743,0,0,0,73.377-11.6,4.622,4.622,0,0,0,72.16-8.49Z" transform="translate(388.729 2146.697)" fill="#fff"/>
    <path id="Path_100-7" data-name="Path 100" d="M4422,611.5v74.739h143.679l23.037-38.083L4565.678,611.5Z" transform="translate(-4255.409 1488.514)" fill="#0d8449" stroke="#fff" stroke-linejoin="round" stroke-width="4"/>
    <g id="Rectangle_238-7" data-name="Rectangle 238" transform="translate(160.591 2101.93)" fill="#0d8449" stroke="#0d8449" stroke-width="4">
      <rect width="12" height="71" stroke="none"/>
      <rect x="2" y="2" width="8" height="67" fill="none"/>
    </g>
    <path id="Path_128" data-name="Path 128" d="M2.393-20.084H11.43a6.126,6.126,0,0,1,4.32,1.511,5.482,5.482,0,0,1,1.641,4.245,6.172,6.172,0,0,1-1.463,4.095,5.543,5.543,0,0,1-4.5,1.743H5.113V0H2.393Zm12.25,5.77A3.022,3.022,0,0,0,13-17.322a5.924,5.924,0,0,0-2.475-.424H5.113v6.959h5.414a5.174,5.174,0,0,0,2.974-.779A3.088,3.088,0,0,0,14.643-14.314Zm5.906-5.77H23.01V0H20.549ZM28.588-3.9a2.027,2.027,0,0,0,.779,1.682,2.889,2.889,0,0,0,1.846.615,5.612,5.612,0,0,0,2.516-.6,3.386,3.386,0,0,0,2.051-3.268V-7.451a4.21,4.21,0,0,1-1.162.479,9.9,9.9,0,0,1-1.395.273l-1.49.191a5.7,5.7,0,0,0-2.01.561A2.184,2.184,0,0,0,28.588-3.9Zm5.961-4.977a1.337,1.337,0,0,0,1.135-.711,2.163,2.163,0,0,0,.164-.943,2,2,0,0,0-.9-1.825,4.8,4.8,0,0,0-2.563-.567,3.257,3.257,0,0,0-2.734,1.039,3.418,3.418,0,0,0-.588,1.709h-2.3a4.228,4.228,0,0,1,1.757-3.767A7.213,7.213,0,0,1,32.443-15a7.97,7.97,0,0,1,4.2.984,3.34,3.34,0,0,1,1.6,3.063v8.436A1.08,1.08,0,0,0,38.4-1.9a.758.758,0,0,0,.663.232q.164,0,.369-.021t.438-.062V.068a6.854,6.854,0,0,1-.875.205,6.394,6.394,0,0,1-.82.041,2.024,2.024,0,0,1-1.846-.9A3.482,3.482,0,0,1,35.9-1.941a6.261,6.261,0,0,1-2.16,1.709,6.682,6.682,0,0,1-3.1.725A4.615,4.615,0,0,1,27.31-.745a4.11,4.11,0,0,1-1.292-3.1A3.989,3.989,0,0,1,27.289-7a6.05,6.05,0,0,1,3.336-1.381Zm7.725-5.77h2.338v2.078a6.557,6.557,0,0,1,2.2-1.846,5.87,5.87,0,0,1,2.584-.561q3.117,0,4.211,2.174a7.719,7.719,0,0,1,.6,3.4V0h-2.5V-9.229a5,5,0,0,0-.4-2.16,2.4,2.4,0,0,0-2.379-1.367,4.844,4.844,0,0,0-1.436.178,3.7,3.7,0,0,0-1.777,1.2,3.622,3.622,0,0,0-.8,1.5,10.077,10.077,0,0,0-.185,2.208V0H42.273Z" transform="translate(181 2148.1)" fill="#fff"/>
  </g>
</svg>
