<svg xmlns="http://www.w3.org/2000/svg" width="1717.834" height="81.169" viewBox="0 0 1717.834 81.169">
  <g id="Group_217" data-name="Group 217" transform="translate(-80.5 -2323)">
    <g id="Rectangle_240" data-name="Rectangle 240" transform="translate(80.5 2329.346)" fill="#0261bb" stroke="#0261bb" stroke-width="3">
      <rect width="365" height="71" rx="35.5" stroke="none"/>
      <rect x="1.5" y="1.5" width="362" height="68" rx="34" fill="none"/>
    </g>
    <path id="Path_107" data-name="Path 107" d="M4422,611.5v74.113h143.679l23.037-37.764L4565.678,611.5Z" transform="translate(-3874.932 1713.5)" fill="#f2f2f2" stroke="#fff" stroke-width="4"/>
    <path id="Path_108" data-name="Path 108" d="M4422,611.5v74.113h143.679l23.037-37.764L4565.678,611.5Z" transform="translate(-2792.736 1713.5)" fill="#f2f2f2" stroke="#fff" stroke-width="4"/>
    <rect id="Rectangle_241" data-name="Rectangle 241" width="1004.199" height="70" transform="translate(657.711 2327.056)" fill="#f2f2f2"/>
    <path id="Path_136" data-name="Path 136" d="M2.393-20.084H11.43a6.126,6.126,0,0,1,4.32,1.511,5.482,5.482,0,0,1,1.641,4.245,6.172,6.172,0,0,1-1.463,4.095,5.543,5.543,0,0,1-4.5,1.743H5.113V0H2.393Zm12.25,5.77A3.022,3.022,0,0,0,13-17.322a5.924,5.924,0,0,0-2.475-.424H5.113v6.959h5.414a5.174,5.174,0,0,0,2.974-.779A3.088,3.088,0,0,0,14.643-14.314Zm5.906-.328h2.338v2.529a5.588,5.588,0,0,1,1.408-1.8,3.651,3.651,0,0,1,2.584-1.06q.068,0,.232.014t.561.055v2.6a3.676,3.676,0,0,0-.4-.055q-.185-.014-.4-.014a3.512,3.512,0,0,0-2.857,1.2,4.176,4.176,0,0,0-1,2.755V0H20.549ZM35.615-1.586a3.394,3.394,0,0,0,3.356-1.853,9.229,9.229,0,0,0,.909-4.122,7.339,7.339,0,0,0-.656-3.336,3.692,3.692,0,0,0-3.582-2.023A3.532,3.532,0,0,0,32.361-11.2a7.985,7.985,0,0,0-1.025,4.156,6.946,6.946,0,0,0,1.025,3.9A3.612,3.612,0,0,0,35.615-1.586Zm.1-13.48A6.63,6.63,0,0,1,40.5-13.18a7.368,7.368,0,0,1,1.955,5.551,9.523,9.523,0,0,1-1.723,5.852A6.232,6.232,0,0,1,35.383.533a6.035,6.035,0,0,1-4.8-2.044A8.073,8.073,0,0,1,28.807-7a8.734,8.734,0,0,1,1.873-5.879A6.286,6.286,0,0,1,35.711-15.066ZM51.557-1.654A3.511,3.511,0,0,0,54.421-3.1,6.864,6.864,0,0,0,55.563-7.41a8.051,8.051,0,0,0-.506-3.008,3.491,3.491,0,0,0-3.5-2.42,3.49,3.49,0,0,0-3.5,2.557,10.133,10.133,0,0,0-.506,3.473,7.361,7.361,0,0,0,.506,2.885A3.49,3.49,0,0,0,51.557-1.654Zm-6.371-12.92h2.393v1.941a5.973,5.973,0,0,1,1.613-1.545A5.193,5.193,0,0,1,52.117-15a5.5,5.5,0,0,1,4.225,1.907,7.814,7.814,0,0,1,1.736,5.448q0,4.785-2.5,6.836a5.653,5.653,0,0,1-3.691,1.3,5.011,5.011,0,0,1-2.775-.725,6.4,6.4,0,0,1-1.463-1.408V5.838H45.186ZM66.76-1.586a3.394,3.394,0,0,0,3.356-1.853,9.229,9.229,0,0,0,.909-4.122,7.339,7.339,0,0,0-.656-3.336,3.692,3.692,0,0,0-3.582-2.023A3.532,3.532,0,0,0,63.506-11.2,7.985,7.985,0,0,0,62.48-7.041a6.946,6.946,0,0,0,1.025,3.9A3.611,3.611,0,0,0,66.76-1.586Zm.1-13.48a6.63,6.63,0,0,1,4.785,1.887A7.368,7.368,0,0,1,73.6-7.629a9.523,9.523,0,0,1-1.723,5.852A6.232,6.232,0,0,1,66.527.533a6.035,6.035,0,0,1-4.8-2.044A8.073,8.073,0,0,1,59.951-7a8.734,8.734,0,0,1,1.873-5.879A6.286,6.286,0,0,1,66.855-15.066ZM77.984-4.594A3.579,3.579,0,0,0,78.6-2.707a3.866,3.866,0,0,0,3.227,1.189,4.758,4.758,0,0,0,2.406-.595,1.975,1.975,0,0,0,1.039-1.839,1.572,1.572,0,0,0-.834-1.436,9.915,9.915,0,0,0-2.105-.7l-1.955-.492a9.537,9.537,0,0,1-2.762-1.039,3.106,3.106,0,0,1-1.586-2.762,4.22,4.22,0,0,1,1.5-3.363,5.972,5.972,0,0,1,4.026-1.285q3.309,0,4.771,1.941a4.213,4.213,0,0,1,.889,2.652H84.889a2.847,2.847,0,0,0-.588-1.518,3.749,3.749,0,0,0-2.939-.971,3.514,3.514,0,0,0-2.112.533,1.671,1.671,0,0,0-.718,1.408,1.733,1.733,0,0,0,.943,1.531,5.669,5.669,0,0,0,1.613.6l1.627.4A12.579,12.579,0,0,1,86.27-7.205a3.294,3.294,0,0,1,1.436,2.967A4.521,4.521,0,0,1,86.222-.861,6.315,6.315,0,0,1,81.7.561q-3.268,0-4.628-1.483a5.61,5.61,0,0,1-1.456-3.671Zm14.424.7a2.027,2.027,0,0,0,.779,1.682,2.889,2.889,0,0,0,1.846.615,5.612,5.612,0,0,0,2.516-.6A3.386,3.386,0,0,0,99.6-5.469V-7.451a4.21,4.21,0,0,1-1.162.479,9.9,9.9,0,0,1-1.395.273l-1.49.191a5.7,5.7,0,0,0-2.01.561A2.184,2.184,0,0,0,92.408-3.9Zm5.961-4.977A1.337,1.337,0,0,0,99.5-9.584a2.163,2.163,0,0,0,.164-.943,2,2,0,0,0-.9-1.825,4.8,4.8,0,0,0-2.563-.567,3.257,3.257,0,0,0-2.734,1.039,3.418,3.418,0,0,0-.588,1.709h-2.3a4.228,4.228,0,0,1,1.757-3.767A7.213,7.213,0,0,1,96.264-15a7.97,7.97,0,0,1,4.2.984,3.34,3.34,0,0,1,1.6,3.063v8.436a1.08,1.08,0,0,0,.157.615.758.758,0,0,0,.663.232q.164,0,.369-.021t.438-.062V.068a6.854,6.854,0,0,1-.875.205,6.394,6.394,0,0,1-.82.041,2.024,2.024,0,0,1-1.846-.9,3.482,3.482,0,0,1-.424-1.354,6.261,6.261,0,0,1-2.16,1.709,6.682,6.682,0,0,1-3.1.725A4.615,4.615,0,0,1,91.13-.745a4.11,4.11,0,0,1-1.292-3.1A3.989,3.989,0,0,1,91.109-7a6.05,6.05,0,0,1,3.336-1.381Zm7.793-11.211h2.461V0h-2.461Zm15.395,15.49a3.579,3.579,0,0,0,.615,1.887A3.866,3.866,0,0,0,125.4-1.518a4.758,4.758,0,0,0,2.406-.595,1.975,1.975,0,0,0,1.039-1.839,1.573,1.573,0,0,0-.834-1.436,9.915,9.915,0,0,0-2.105-.7l-1.955-.492a9.537,9.537,0,0,1-2.762-1.039,3.106,3.106,0,0,1-1.586-2.762,4.22,4.22,0,0,1,1.5-3.363,5.972,5.972,0,0,1,4.026-1.285q3.309,0,4.771,1.941a4.213,4.213,0,0,1,.889,2.652h-2.324a2.847,2.847,0,0,0-.588-1.518,3.749,3.749,0,0,0-2.939-.971,3.514,3.514,0,0,0-2.112.533,1.671,1.671,0,0,0-.718,1.408,1.733,1.733,0,0,0,.943,1.531,5.669,5.669,0,0,0,1.613.6l1.627.4a12.579,12.579,0,0,1,3.555,1.244,3.294,3.294,0,0,1,1.436,2.967,4.521,4.521,0,0,1-1.483,3.377A6.315,6.315,0,0,1,125.275.561q-3.268,0-4.628-1.483a5.61,5.61,0,0,1-1.456-3.671Zm18.635-10.377a6.679,6.679,0,0,1,3.021.731,5.572,5.572,0,0,1,2.229,1.894,6.533,6.533,0,0,1,.984,2.584,16.907,16.907,0,0,1,.219,3.227H135.912a6.263,6.263,0,0,0,1.053,3.575,3.525,3.525,0,0,0,3.049,1.347,3.941,3.941,0,0,0,3.076-1.271,4.286,4.286,0,0,0,.93-1.709h2.42a5.1,5.1,0,0,1-.636,1.8,6.4,6.4,0,0,1-1.21,1.62A5.735,5.735,0,0,1,141.818.3a8.431,8.431,0,0,1-2.01.219,6.166,6.166,0,0,1-4.635-1.989,7.74,7.74,0,0,1-1.9-5.571,8.416,8.416,0,0,1,1.914-5.729A6.314,6.314,0,0,1,140.191-14.971Zm3.924,6.48a6.376,6.376,0,0,0-.7-2.557,3.574,3.574,0,0,0-3.377-1.777A3.743,3.743,0,0,0,137.2-11.6a4.622,4.622,0,0,0-1.217,3.11Zm5.551-6.152H152v2.078a6.557,6.557,0,0,1,2.2-1.846,5.87,5.87,0,0,1,2.584-.561q3.117,0,4.211,2.174a7.719,7.719,0,0,1,.6,3.4V0h-2.5V-9.229a5,5,0,0,0-.4-2.16,2.4,2.4,0,0,0-2.379-1.367,4.844,4.844,0,0,0-1.436.178,3.7,3.7,0,0,0-1.777,1.2,3.622,3.622,0,0,0-.8,1.5,10.077,10.077,0,0,0-.185,2.208V0h-2.461ZM165.73-18.73h2.488v4.088h2.338v2.01h-2.338v9.557a1.034,1.034,0,0,0,.52,1.025,2.208,2.208,0,0,0,.957.15q.178,0,.383-.007t.479-.034V0a5.493,5.493,0,0,1-.882.178,8.384,8.384,0,0,1-.991.055,2.671,2.671,0,0,1-2.338-.882,3.919,3.919,0,0,1-.615-2.29v-9.693h-1.982v-2.01h1.982Z" transform="translate(1091.195 2371.056)" fill="#282828"/>
    <path id="Path_110" data-name="Path 110" d="M4422,611.5v74.739h143.679l23.037-38.083L4565.678,611.5Z" transform="translate(-4015.196 1715.93)" fill="#0261bb" stroke="#fff" stroke-linejoin="round" stroke-width="4"/>
    <g id="Rectangle_242" data-name="Rectangle 242" transform="translate(398.729 2329.346)" fill="#0261bb" stroke="#0261bb" stroke-width="4">
      <rect width="12" height="71" stroke="none"/>
      <rect x="2" y="2" width="8" height="67" fill="none"/>
    </g>
    <path id="Path_135" data-name="Path 135" d="M2.748-20.084H5.5V0H2.748Zm6.836,5.441h2.338v2.078a6.557,6.557,0,0,1,2.2-1.846,5.87,5.87,0,0,1,2.584-.561q3.117,0,4.211,2.174a7.719,7.719,0,0,1,.6,3.4V0h-2.5V-9.229a5,5,0,0,0-.4-2.16,2.4,2.4,0,0,0-2.379-1.367,4.844,4.844,0,0,0-1.436.178,3.7,3.7,0,0,0-1.777,1.2,3.622,3.622,0,0,0-.8,1.5,10.077,10.077,0,0,0-.185,2.208V0H9.584Zm23.939-5.441h9.037a6.126,6.126,0,0,1,4.32,1.511,5.482,5.482,0,0,1,1.641,4.245,6.172,6.172,0,0,1-1.463,4.095,5.543,5.543,0,0,1-4.5,1.743H36.244V0H33.523Zm12.25,5.77a3.022,3.022,0,0,0-1.641-3.008,5.924,5.924,0,0,0-2.475-.424H36.244v6.959h5.414a5.174,5.174,0,0,0,2.974-.779A3.088,3.088,0,0,0,45.773-14.314Zm5.906-.328h2.338v2.529a5.588,5.588,0,0,1,1.408-1.8,3.651,3.651,0,0,1,2.584-1.06q.068,0,.232.014t.561.055v2.6a3.676,3.676,0,0,0-.4-.055q-.185-.014-.4-.014a3.512,3.512,0,0,0-2.857,1.2,4.176,4.176,0,0,0-1,2.755V0H51.68ZM66.746-1.586A3.394,3.394,0,0,0,70.1-3.438a9.229,9.229,0,0,0,.909-4.122,7.339,7.339,0,0,0-.656-3.336,3.692,3.692,0,0,0-3.582-2.023A3.532,3.532,0,0,0,63.492-11.2a7.985,7.985,0,0,0-1.025,4.156,6.946,6.946,0,0,0,1.025,3.9A3.611,3.611,0,0,0,66.746-1.586Zm.1-13.48a6.63,6.63,0,0,1,4.785,1.887,7.368,7.368,0,0,1,1.955,5.551,9.523,9.523,0,0,1-1.723,5.852A6.232,6.232,0,0,1,66.514.533a6.035,6.035,0,0,1-4.8-2.044A8.073,8.073,0,0,1,59.938-7a8.734,8.734,0,0,1,1.873-5.879A6.286,6.286,0,0,1,66.842-15.066Zm14.834.164a5.337,5.337,0,0,1,3.008.848,6.756,6.756,0,0,1,1.422,1.395v-1.846h2.27V-1.189a9.82,9.82,0,0,1-.82,4.4q-1.531,2.98-5.783,2.98a7.094,7.094,0,0,1-3.979-1.06,4.132,4.132,0,0,1-1.8-3.315h2.5A2.784,2.784,0,0,0,79.2,3.336a3.625,3.625,0,0,0,2.625.82q2.83,0,3.705-2a11.242,11.242,0,0,0,.479-4.2A4.829,4.829,0,0,1,84.232-.369a5.912,5.912,0,0,1-2.748.547,5.866,5.866,0,0,1-4.163-1.688Q75.537-3.2,75.537-7.1a8.458,8.458,0,0,1,1.8-5.742A5.559,5.559,0,0,1,81.676-14.9Zm4.43,7.52a6.1,6.1,0,0,0-1.121-4.033,3.592,3.592,0,0,0-2.857-1.312,3.528,3.528,0,0,0-3.555,2.434,9.542,9.542,0,0,0-.506,3.4,6.043,6.043,0,0,0,1,3.767,3.244,3.244,0,0,0,2.7,1.292A3.791,3.791,0,0,0,85.5-4.225,7.717,7.717,0,0,0,86.105-7.383Zm6.043-7.26h2.338v2.529a5.588,5.588,0,0,1,1.408-1.8,3.651,3.651,0,0,1,2.584-1.06q.068,0,.232.014t.561.055v2.6a3.676,3.676,0,0,0-.4-.055q-.185-.014-.4-.014a3.512,3.512,0,0,0-2.857,1.2,4.176,4.176,0,0,0-1,2.755V0H92.148Zm15.354-.328a6.679,6.679,0,0,1,3.021.731,5.572,5.572,0,0,1,2.229,1.894,6.533,6.533,0,0,1,.984,2.584,16.906,16.906,0,0,1,.219,3.227H103.223a6.263,6.263,0,0,0,1.053,3.575,3.525,3.525,0,0,0,3.049,1.347A3.941,3.941,0,0,0,110.4-2.885a4.286,4.286,0,0,0,.93-1.709h2.42a5.1,5.1,0,0,1-.636,1.8,6.394,6.394,0,0,1-1.21,1.62A5.735,5.735,0,0,1,109.129.3a8.431,8.431,0,0,1-2.01.219,6.166,6.166,0,0,1-4.635-1.989,7.74,7.74,0,0,1-1.9-5.571A8.416,8.416,0,0,1,102.5-12.77,6.314,6.314,0,0,1,107.5-14.971Zm3.924,6.48a6.376,6.376,0,0,0-.7-2.557,3.574,3.574,0,0,0-3.377-1.777,3.743,3.743,0,0,0-2.844,1.224,4.622,4.622,0,0,0-1.217,3.11Zm7.014,3.9a3.579,3.579,0,0,0,.615,1.887,3.866,3.866,0,0,0,3.227,1.189,4.758,4.758,0,0,0,2.406-.595,1.975,1.975,0,0,0,1.039-1.839,1.572,1.572,0,0,0-.834-1.436,9.915,9.915,0,0,0-2.105-.7l-1.955-.492a9.537,9.537,0,0,1-2.762-1.039,3.106,3.106,0,0,1-1.586-2.762,4.22,4.22,0,0,1,1.5-3.363,5.972,5.972,0,0,1,4.026-1.285q3.309,0,4.771,1.941a4.213,4.213,0,0,1,.889,2.652h-2.324a2.847,2.847,0,0,0-.588-1.518,3.749,3.749,0,0,0-2.939-.971,3.514,3.514,0,0,0-2.112.533,1.671,1.671,0,0,0-.718,1.408,1.733,1.733,0,0,0,.943,1.531,5.669,5.669,0,0,0,1.613.6l1.627.4a12.579,12.579,0,0,1,3.555,1.244,3.294,3.294,0,0,1,1.436,2.967,4.521,4.521,0,0,1-1.483,3.377A6.315,6.315,0,0,1,122.158.561q-3.268,0-4.628-1.483a5.61,5.61,0,0,1-1.456-3.671Zm14,0a3.579,3.579,0,0,0,.615,1.887,3.866,3.866,0,0,0,3.227,1.189,4.758,4.758,0,0,0,2.406-.595,1.975,1.975,0,0,0,1.039-1.839,1.573,1.573,0,0,0-.834-1.436,9.916,9.916,0,0,0-2.105-.7l-1.955-.492a9.537,9.537,0,0,1-2.762-1.039,3.106,3.106,0,0,1-1.586-2.762,4.22,4.22,0,0,1,1.5-3.363,5.972,5.972,0,0,1,4.026-1.285q3.309,0,4.771,1.941a4.213,4.213,0,0,1,.889,2.652h-2.324a2.847,2.847,0,0,0-.588-1.518,3.749,3.749,0,0,0-2.939-.971,3.514,3.514,0,0,0-2.112.533,1.671,1.671,0,0,0-.718,1.408,1.733,1.733,0,0,0,.943,1.531,5.669,5.669,0,0,0,1.613.6l1.627.4a12.579,12.579,0,0,1,3.555,1.244,3.294,3.294,0,0,1,1.436,2.967,4.521,4.521,0,0,1-1.483,3.377A6.315,6.315,0,0,1,136.158.561q-3.268,0-4.628-1.483a5.61,5.61,0,0,1-1.456-3.671Z" transform="translate(265.804 2375.515)" fill="#fff"/>
  </g>
</svg>
