<svg id="menu" xmlns="http://www.w3.org/2000/svg" width="29.077" height="21" viewBox="0 0 29.077 21">
  <path id="Path_87" data-name="Path 87" d="M27.866,125.091H1.212a1.212,1.212,0,1,1,0-2.423H27.866a1.212,1.212,0,1,1,0,2.423Zm0,0" transform="translate(0 -113.379)" fill="#231f20"/>
  <path id="Path_88" data-name="Path 88" d="M27.866,2.423H1.212A1.212,1.212,0,0,1,1.212,0H27.866a1.212,1.212,0,0,1,0,2.423Zm0,0" fill="#231f20"/>
  <path id="Path_89" data-name="Path 89" d="M27.866,247.755H1.212a1.212,1.212,0,1,1,0-2.423H27.866a1.212,1.212,0,1,1,0,2.423Zm0,0" transform="translate(0 -226.755)" fill="#231f20"/>
</svg>
