<svg xmlns="http://www.w3.org/2000/svg" width="154" height="21.631" viewBox="0 0 154 21.631">
  <g id="Group_123" data-name="Group 123" transform="translate(-920.092 -875.15)">
    <g id="Group_121" data-name="Group 121" transform="translate(920.092 875.15)">
      <path id="Path_70" data-name="Path 70" d="M1074.089,880.457a7.294,7.294,0,0,0-.171-1.384,6.481,6.481,0,0,0-.488-1.423,5.1,5.1,0,0,0-.481-.8,4.434,4.434,0,0,0-.665-.728,3.826,3.826,0,0,0-1.745-.881,3.154,3.154,0,0,0-.493-.067,3.209,3.209,0,0,0-.5-.018l-.649.022-1.054.051-4.292.207L1028.44,877.1l-27.248,1.284q-12.294.584-24.59,1.094-12.339.5-24.68.974l-12.257.441c-4.525.149-9.122.236-13.608.565a13.069,13.069,0,0,0-3.734.587,12.535,12.535,0,0,0-1.651.831c-.363.235-.716.532-.527.811.245.363,1.26.522,2.051.613a49.3,49.3,0,0,0,5.775.2c5.28-.042,10.563-.065,15.842-.206,2.624-.066,5.244-.172,7.865-.278l11.8-.47,11.858-.5,11.723-.523,27.173-1.17q17.541-.8,35.071-1.8l7.986-.468c2.719-.158,5.421-.394,8.135-.594l2.315-.168,1.158-.082.555-.03a1.832,1.832,0,0,1,.346,0,1.076,1.076,0,0,1,.6.293,1.854,1.854,0,0,1,.4.622,4.339,4.339,0,0,1,.312,1.874,3.321,3.321,0,0,1-.512,1.727,1.35,1.35,0,0,1-.547.469c-.059.022-.107.046-.175.066l-.272.083-.549.169q-2.2.673-4.432,1.244a160.53,160.53,0,0,1-18.541,3.488c-6.2.833-12.4,1.476-18.624,2.106s-12.4,1.431-18.609,2.024c-6.291.606-12.593,1.1-18.9,1.534q-9.41.627-18.829,1.083c-6.283.3-12.551.492-18.825.774l-4.5.171-1.251.042a9.614,9.614,0,0,0-1.126.035.553.553,0,0,0-.361.268c-.16.255.327.5.962.495,2.848-.024,5.7-.037,8.545-.1l4.272-.08,4.272-.109,2.136-.052,2.136-.066,4.272-.12,8.543-.26c1.455-.046,2.908-.074,4.359-.132s2.9-.118,4.359-.194,2.923-.176,4.385-.263l2.192-.136,2.191-.154c5.845-.395,11.682-.9,17.514-1.426,5.874-.533,11.738-1.141,17.6-1.743l8.849-.94c2.888-.313,7.16-.709,11.084-1.239a118.966,118.966,0,0,0,16.353-3.235c.325-.089.649-.187.973-.28l.486-.141.122-.035c.035-.012.093-.023.172-.055q.227-.079.449-.17a4.239,4.239,0,0,0,1.511-1.161,5.2,5.2,0,0,0,.836-1.437A7.033,7.033,0,0,0,1074.089,880.457Z" transform="translate(-920.092 -875.15)" fill="#f5b400"/>
    </g>
  </g>
</svg>
